<?xml version="1.0" encoding="UTF-8"?>
<svg id="Calque_2" data-name="Calque 2" xmlns="http://www.w3.org/2000/svg" viewBox="0 0 397.32 298.76">
  <defs>
    <style>
      .cls-1, .cls-2 {
        fill: #fcfada;
      }

      .cls-2 {
        font-family: Inter-Bold, Inter;
        font-size: 60px;
        font-variation-settings: 'opsz' 14, 'wght' 700;
        font-weight: 700;
      }

      .cls-3 {
        letter-spacing: -.02em;
      }

      .cls-4 {
        letter-spacing: 0em;
      }
    </style>
  </defs>
  <g id="Calque_1-2" data-name="Calque 1">
    <g>
      <text class="cls-2" transform="translate(0 51.83)"><tspan x="0" y="0">Bo</tspan><tspan class="cls-3" x="76.49" y="0">r</tspan><tspan x="99.46" y="0">d</tspan><tspan class="cls-4" x="137.29" y="0">e</tspan><tspan x="173.61" y="0">aux</tspan></text>
      <g>
        <path class="cls-1" d="M141.69,156h0c-15.47,0-28.02-40.7-28.02-56.17h0c0-15.47,12.54-28.02,28.02-28.02h0c15.47,0,28.02,12.54,28.02,28.02h0c0,15.47-12.54,56.17-28.02,56.17ZM164.9,100.58h0c0-12.82-10.39-23.21-23.21-23.21h0c-12.82,0-23.21,10.39-23.21,23.21h0c0,12.82,10.39,46.54,23.21,46.54h0c12.82,0,23.21-33.72,23.21-46.54Z"/>
        <path class="cls-1" d="M141.69,120.71h0c-11.15,0-20.19-9.04-20.19-20.19h0c0-11.15,9.04-20.19,20.19-20.19h0c11.15,0,20.19,9.04,20.19,20.19h0c0,11.15-9.04,20.19-20.19,20.19ZM158.89,98.49h0c0-9.5-7.7-17.2-17.2-17.2h0c-9.5,0-17.2,7.7-17.2,17.2h0c0,9.5,7.7,17.2,17.2,17.2h0c9.5,0,17.2-7.7,17.2-17.2Z"/>
        <rect class="cls-1" x="134.75" y="91.56" width="13.87" height="13.87" rx="6.94" ry="6.94"/>
      </g>
      <g>
        <path class="cls-1" d="M323.1,223.78h0c-15.47,0-28.02-40.7-28.02-56.17h0c0-15.47,12.54-28.02,28.02-28.02h0c15.47,0,28.02,12.54,28.02,28.02h0c0,15.47-12.54,56.17-28.02,56.17ZM346.31,168.36h0c0-12.82-10.39-23.21-23.21-23.21h0c-12.82,0-23.21,10.39-23.21,23.21h0c0,12.82,10.39,46.54,23.21,46.54h0c12.82,0,23.21-33.72,23.21-46.54Z"/>
        <path class="cls-1" d="M323.1,188.49h0c-11.15,0-20.19-9.04-20.19-20.19h0c0-11.15,9.04-20.19,20.19-20.19h0c11.15,0,20.19,9.04,20.19,20.19h0c0,11.15-9.04,20.19-20.19,20.19ZM340.3,166.27h0c0-9.5-7.7-17.2-17.2-17.2h0c-9.5,0-17.2,7.7-17.2,17.2h0c0,9.5,7.7,17.2,17.2,17.2h0c9.5,0,17.2-7.7,17.2-17.2Z"/>
        <rect class="cls-1" x="316.17" y="159.33" width="13.87" height="13.87" rx="6.94" ry="6.94"/>
      </g>
      <rect class="cls-1" x="217.98" y="183.47" width="13.96" height="13.96" rx="6.98" ry="6.98"/>
      <rect class="cls-1" x="185.61" y="171.5" width="13.96" height="13.96" rx="6.98" ry="6.98"/>
      <rect class="cls-1" x="255.55" y="197.43" width="13.96" height="13.96" rx="6.98" ry="6.98"/>
      <rect class="cls-1" x="153.23" y="159.29" width="13.96" height="13.96" rx="6.98" ry="6.98"/>
      <rect class="cls-1" x="285.93" y="210.81" width="13.96" height="13.96" rx="6.98" ry="6.98"/>
      <text class="cls-2" transform="translate(257.37 279.42)"><tspan x="0" y="0">Nice</tspan></text>
    </g>
  </g>
</svg>