<?xml version="1.0" encoding="UTF-8"?>
<svg id="Calque_2" data-name="Calque 2" xmlns="http://www.w3.org/2000/svg" viewBox="0 0 451.28 302.67">
  <defs>
    <style>
      .cls-1 {
        font-family: AcuminConcept-Bold, 'Acumin Variable Concept';
        font-variation-settings: 'wght' 700, 'wdth' 100, 'slnt' 0;
      }

      .cls-1, .cls-2, .cls-3 {
        fill: #fcfada;
      }

      .cls-1, .cls-3 {
        font-size: 60px;
        font-weight: 700;
      }

      .cls-3 {
        font-family: Inter-Bold, Inter;
        font-variation-settings: 'opsz' 14, 'wght' 700;
      }

      .cls-4 {
        letter-spacing: -.09em;
      }

      .cls-5 {
        letter-spacing: 0em;
      }

      .cls-6 {
        letter-spacing: 0em;
      }

      .cls-7 {
        letter-spacing: 0em;
      }
    </style>
  </defs>
  <g id="Calque_1-2" data-name="Calque 1">
    <g>
      <text class="cls-3" transform="translate(0 51.83)"><tspan x="0" y="0">Marseille</tspan></text>
      <g>
        <path class="cls-2" d="M134.65,156.24h0c-15.47,0-28.02-40.7-28.02-56.17h0c0-15.47,12.54-28.02,28.02-28.02h0c15.47,0,28.02,12.54,28.02,28.02h0c0,15.47-12.54,56.17-28.02,56.17ZM157.86,100.82h0c0-12.82-10.39-23.21-23.21-23.21h0c-12.82,0-23.21,10.39-23.21,23.21h0c0,12.82,10.39,46.54,23.21,46.54h0c12.82,0,23.21-33.72,23.21-46.54Z"/>
        <path class="cls-2" d="M134.65,120.95h0c-11.15,0-20.19-9.04-20.19-20.19h0c0-11.15,9.04-20.19,20.19-20.19h0c11.15,0,20.19,9.04,20.19,20.19h0c0,11.15-9.04,20.19-20.19,20.19ZM151.85,98.73h0c0-9.5-7.7-17.2-17.2-17.2h0c-9.5,0-17.2,7.7-17.2,17.2h0c0,9.5,7.7,17.2,17.2,17.2h0c9.5,0,17.2-7.7,17.2-17.2Z"/>
        <rect class="cls-2" x="127.71" y="91.79" width="13.87" height="13.87" rx="6.94" ry="6.94"/>
      </g>
      <g>
        <path class="cls-2" d="M316.06,224.01h0c-15.47,0-28.02-40.7-28.02-56.17h0c0-15.47,12.54-28.02,28.02-28.02h0c15.47,0,28.02,12.54,28.02,28.02h0c0,15.47-12.54,56.17-28.02,56.17ZM339.27,168.59h0c0-12.82-10.39-23.21-23.21-23.21h0c-12.82,0-23.21,10.39-23.21,23.21h0c0,12.82,10.39,46.54,23.21,46.54h0c12.82,0,23.21-33.72,23.21-46.54Z"/>
        <path class="cls-2" d="M316.06,188.72h0c-11.15,0-20.19-9.04-20.19-20.19h0c0-11.15,9.04-20.19,20.19-20.19h0c11.15,0,20.19,9.04,20.19,20.19h0c0,11.15-9.04,20.19-20.19,20.19ZM333.27,166.5h0c0-9.5-7.7-17.2-17.2-17.2h0c-9.5,0-17.2,7.7-17.2,17.2h0c0,9.5,7.7,17.2,17.2,17.2h0c9.5,0,17.2-7.7,17.2-17.2Z"/>
        <rect class="cls-2" x="309.13" y="159.57" width="13.87" height="13.87" rx="6.94" ry="6.94"/>
      </g>
      <rect class="cls-2" x="210.94" y="183.71" width="13.96" height="13.96" rx="6.98" ry="6.98"/>
      <rect class="cls-2" x="178.57" y="171.73" width="13.96" height="13.96" rx="6.98" ry="6.98"/>
      <rect class="cls-2" x="248.52" y="197.66" width="13.96" height="13.96" rx="6.98" ry="6.98"/>
      <rect class="cls-2" x="146.19" y="159.52" width="13.96" height="13.96" rx="6.98" ry="6.98"/>
      <rect class="cls-2" x="278.89" y="211.05" width="13.96" height="13.96" rx="6.98" ry="6.98"/>
      <text class="cls-1" transform="translate(180.84 287.06)"><tspan class="cls-4" x="0" y="0">T</tspan><tspan x="29.94" y="0">oulo</tspan><tspan class="cls-6" x="150.96" y="0">u</tspan><tspan class="cls-7" x="185.58" y="0">s</tspan><tspan class="cls-5" x="216.78" y="0">e</tspan></text>
    </g>
  </g>
</svg>