<?xml version="1.0" encoding="UTF-8"?>
<svg id="Calque_2" data-name="Calque 2" xmlns="http://www.w3.org/2000/svg" viewBox="0 0 423.47 299.68">
  <defs>
    <style>
      .cls-1 {
        font-family: AcuminConcept-Bold, 'Acumin Variable Concept';
        font-variation-settings: 'wght' 700, 'wdth' 100, 'slnt' 0;
      }

      .cls-1, .cls-2, .cls-3 {
        fill: #fcfada;
      }

      .cls-1, .cls-3 {
        font-size: 60px;
        font-weight: 700;
      }

      .cls-3 {
        font-family: Inter-Bold, Inter;
        font-variation-settings: 'opsz' 14, 'wght' 700;
      }

      .cls-4 {
        letter-spacing: -.09em;
      }

      .cls-5 {
        letter-spacing: 0em;
      }

      .cls-6 {
        letter-spacing: 0em;
      }

      .cls-7 {
        letter-spacing: 0em;
      }

      .cls-8 {
        letter-spacing: 0em;
      }
    </style>
  </defs>
  <g id="Calque_1-2" data-name="Calque 1">
    <g>
      <text class="cls-3" transform="translate(0 51.83)"><tspan x="0" y="0">Nan</tspan><tspan class="cls-6" x="117.92" y="0">t</tspan><tspan x="139.31" y="0">es</tspan></text>
      <g>
        <path class="cls-2" d="M104.38,156h0c-15.47,0-28.02-40.7-28.02-56.17h0c0-15.47,12.54-28.02,28.02-28.02h0c15.47,0,28.02,12.54,28.02,28.02h0c0,15.47-12.54,56.17-28.02,56.17ZM127.59,100.58h0c0-12.82-10.39-23.21-23.21-23.21h0c-12.82,0-23.21,10.39-23.21,23.21h0c0,12.82,10.39,46.54,23.21,46.54h0c12.82,0,23.21-33.72,23.21-46.54Z"/>
        <path class="cls-2" d="M104.38,120.71h0c-11.15,0-20.19-9.04-20.19-20.19h0c0-11.15,9.04-20.19,20.19-20.19h0c11.15,0,20.19,9.04,20.19,20.19h0c0,11.15-9.04,20.19-20.19,20.19ZM121.58,98.49h0c0-9.5-7.7-17.2-17.2-17.2h0c-9.5,0-17.2,7.7-17.2,17.2h0c0,9.5,7.7,17.2,17.2,17.2h0c9.5,0,17.2-7.7,17.2-17.2Z"/>
        <rect class="cls-2" x="97.44" y="91.56" width="13.87" height="13.87" rx="6.94" ry="6.94"/>
      </g>
      <g>
        <path class="cls-2" d="M285.79,223.78h0c-15.47,0-28.02-40.7-28.02-56.17h0c0-15.47,12.54-28.02,28.02-28.02h0c15.47,0,28.02,12.54,28.02,28.02h0c0,15.47-12.54,56.17-28.02,56.17ZM309.01,168.36h0c0-12.82-10.39-23.21-23.21-23.21h0c-12.82,0-23.21,10.39-23.21,23.21h0c0,12.82,10.39,46.54,23.21,46.54h0c12.82,0,23.21-33.72,23.21-46.54Z"/>
        <path class="cls-2" d="M285.79,188.49h0c-11.15,0-20.19-9.04-20.19-20.19h0c0-11.15,9.04-20.19,20.19-20.19h0c11.15,0,20.19,9.04,20.19,20.19h0c0,11.15-9.04,20.19-20.19,20.19ZM303,166.27h0c0-9.5-7.7-17.2-17.2-17.2h0c-9.5,0-17.2,7.7-17.2,17.2h0c0,9.5,7.7,17.2,17.2,17.2h0c9.5,0,17.2-7.7,17.2-17.2Z"/>
        <rect class="cls-2" x="278.86" y="159.33" width="13.87" height="13.87" rx="6.94" ry="6.94"/>
      </g>
      <rect class="cls-2" x="180.67" y="183.47" width="13.96" height="13.96" rx="6.98" ry="6.98"/>
      <rect class="cls-2" x="148.3" y="171.5" width="13.96" height="13.96" rx="6.98" ry="6.98"/>
      <rect class="cls-2" x="218.25" y="197.43" width="13.96" height="13.96" rx="6.98" ry="6.98"/>
      <rect class="cls-2" x="115.93" y="159.29" width="13.96" height="13.96" rx="6.98" ry="6.98"/>
      <rect class="cls-2" x="248.63" y="210.81" width="13.96" height="13.96" rx="6.98" ry="6.98"/>
      <text class="cls-1" transform="translate(153.03 284.06)"><tspan class="cls-4" x="0" y="0">T</tspan><tspan x="29.94" y="0">oulo</tspan><tspan class="cls-7" x="150.96" y="0">u</tspan><tspan class="cls-8" x="185.58" y="0">s</tspan><tspan class="cls-5" x="216.78" y="0">e</tspan></text>
    </g>
  </g>
</svg>