<?xml version="1.0" encoding="UTF-8"?>
<svg id="Calque_2" data-name="Calque 2" xmlns="http://www.w3.org/2000/svg" viewBox="0 0 366.69 303.72">
  <defs>
    <style>
      .cls-1, .cls-2 {
        fill: #fcfada;
      }

      .cls-2 {
        font-family: Inter-Bold, Inter;
        font-size: 60px;
        font-variation-settings: 'opsz' 14, 'wght' 700;
        font-weight: 700;
      }

      .cls-3 {
        letter-spacing: -.02em;
      }

      .cls-4 {
        letter-spacing: -.01em;
      }

      .cls-5 {
        letter-spacing: -.01em;
      }
    </style>
  </defs>
  <g id="Calque_1-2" data-name="Calque 1">
    <g>
      <text class="cls-2" transform="translate(0 51.83)"><tspan class="cls-4" x="0" y="0">P</tspan><tspan x="38.12" y="0">a</tspan><tspan class="cls-5" x="72.95" y="0">r</tspan><tspan x="96.56" y="0">adis</tspan></text>
      <g>
        <path class="cls-1" d="M106.96,155.67h0c-15.47,0-28.02-40.7-28.02-56.17h0c0-15.47,12.54-28.02,28.02-28.02h0c15.47,0,28.02,12.54,28.02,28.02h0c0,15.47-12.54,56.17-28.02,56.17ZM130.18,100.25h0c0-12.82-10.39-23.21-23.21-23.21h0c-12.82,0-23.21,10.39-23.21,23.21h0c0,12.82,10.39,46.54,23.21,46.54h0c12.82,0,23.21-33.72,23.21-46.54Z"/>
        <path class="cls-1" d="M106.96,120.38h0c-11.15,0-20.19-9.04-20.19-20.19h0c0-11.15,9.04-20.19,20.19-20.19h0c11.15,0,20.19,9.04,20.19,20.19h0c0,11.15-9.04,20.19-20.19,20.19ZM124.17,98.16h0c0-9.5-7.7-17.2-17.2-17.2h0c-9.5,0-17.2,7.7-17.2,17.2h0c0,9.5,7.7,17.2,17.2,17.2h0c9.5,0,17.2-7.7,17.2-17.2Z"/>
        <rect class="cls-1" x="100.03" y="91.23" width="13.87" height="13.87" rx="6.94" ry="6.94"/>
      </g>
      <g>
        <path class="cls-1" d="M288.38,223.45h0c-15.47,0-28.02-40.7-28.02-56.17h0c0-15.47,12.54-28.02,28.02-28.02h0c15.47,0,28.02,12.54,28.02,28.02h0c0,15.47-12.54,56.17-28.02,56.17ZM311.59,168.03h0c0-12.82-10.39-23.21-23.21-23.21h0c-12.82,0-23.21,10.39-23.21,23.21h0c0,12.82,10.39,46.54,23.21,46.54h0c12.82,0,23.21-33.72,23.21-46.54Z"/>
        <path class="cls-1" d="M288.38,188.16h0c-11.15,0-20.19-9.04-20.19-20.19h0c0-11.15,9.04-20.19,20.19-20.19h0c11.15,0,20.19,9.04,20.19,20.19h0c0,11.15-9.04,20.19-20.19,20.19ZM305.58,165.94h0c0-9.5-7.7-17.2-17.2-17.2h0c-9.5,0-17.2,7.7-17.2,17.2h0c0,9.5,7.7,17.2,17.2,17.2h0c9.5,0,17.2-7.7,17.2-17.2Z"/>
        <rect class="cls-1" x="281.44" y="159" width="13.87" height="13.87" rx="6.94" ry="6.94"/>
      </g>
      <rect class="cls-1" x="183.25" y="183.14" width="13.96" height="13.96" rx="6.98" ry="6.98"/>
      <rect class="cls-1" x="150.88" y="171.17" width="13.96" height="13.96" rx="6.98" ry="6.98"/>
      <rect class="cls-1" x="220.83" y="197.1" width="13.96" height="13.96" rx="6.98" ry="6.98"/>
      <rect class="cls-1" x="118.51" y="158.96" width="13.96" height="13.96" rx="6.98" ry="6.98"/>
      <rect class="cls-1" x="251.21" y="210.49" width="13.96" height="13.96" rx="6.98" ry="6.98"/>
      <text class="cls-2" transform="translate(210.06 284.38)"><tspan x="0" y="0">En</tspan><tspan class="cls-3" x="73.8" y="0">f</tspan><tspan x="96.39" y="0">er</tspan></text>
    </g>
  </g>
</svg>