<?xml version="1.0" encoding="UTF-8"?>
<svg id="Calque_2" data-name="Calque 2" xmlns="http://www.w3.org/2000/svg" viewBox="0 0 312.88 292.16">
  <defs>
    <style>
      .cls-1, .cls-2 {
        fill: #fcfada;
      }

      .cls-3 {
        letter-spacing: -.01em;
      }

      .cls-4 {
        letter-spacing: -.02em;
      }

      .cls-2 {
        font-family: MyriadPro-Bold, 'Myriad Pro';
        font-size: 60px;
        font-weight: 700;
      }

      .cls-5 {
        letter-spacing: -.04em;
      }
    </style>
  </defs>
  <g id="Calque_1-2" data-name="Calque 1">
    <text class="cls-2" transform="translate(0 50.22)"><tspan class="cls-4" x="0" y="0">P</tspan><tspan x="33.78" y="0">aris</tspan></text>
    <g>
      <path class="cls-1" d="M65.73,154.79h0c-15.47,0-28.02-40.7-28.02-56.17h0c0-15.47,12.54-28.02,28.02-28.02h0c15.47,0,28.02,12.54,28.02,28.02h0c0,15.47-12.54,56.17-28.02,56.17ZM88.95,99.37h0c0-12.82-10.39-23.21-23.21-23.21h0c-12.82,0-23.21,10.39-23.21,23.21h0c0,12.82,10.39,46.54,23.21,46.54h0c12.82,0,23.21-33.72,23.21-46.54Z"/>
      <path class="cls-1" d="M65.73,119.5h0c-11.15,0-20.19-9.04-20.19-20.19h0c0-11.15,9.04-20.19,20.19-20.19h0c11.15,0,20.19,9.04,20.19,20.19h0c0,11.15-9.04,20.19-20.19,20.19ZM82.94,97.28h0c0-9.5-7.7-17.2-17.2-17.2h0c-9.5,0-17.2,7.7-17.2,17.2h0c0,9.5,7.7,17.2,17.2,17.2h0c9.5,0,17.2-7.7,17.2-17.2Z"/>
      <rect class="cls-1" x="58.8" y="90.34" width="13.87" height="13.87" rx="6.94" ry="6.94"/>
    </g>
    <g>
      <path class="cls-1" d="M247.15,222.57h0c-15.47,0-28.02-40.7-28.02-56.17h0c0-15.47,12.54-28.02,28.02-28.02h0c15.47,0,28.02,12.54,28.02,28.02h0c0,15.47-12.54,56.17-28.02,56.17ZM270.36,167.14h0c0-12.82-10.39-23.21-23.21-23.21h0c-12.82,0-23.21,10.39-23.21,23.21h0c0,12.82,10.39,46.54,23.21,46.54h0c12.82,0,23.21-33.72,23.21-46.54Z"/>
      <path class="cls-1" d="M247.15,187.27h0c-11.15,0-20.19-9.04-20.19-20.19h0c0-11.15,9.04-20.19,20.19-20.19h0c11.15,0,20.19,9.04,20.19,20.19h0c0,11.15-9.04,20.19-20.19,20.19ZM264.35,165.05h0c0-9.5-7.7-17.2-17.2-17.2h0c-9.5,0-17.2,7.7-17.2,17.2h0c0,9.5,7.7,17.2,17.2,17.2h0c9.5,0,17.2-7.7,17.2-17.2Z"/>
      <rect class="cls-1" x="240.21" y="158.12" width="13.87" height="13.87" rx="6.94" ry="6.94"/>
    </g>
    <rect class="cls-1" x="142.02" y="182.26" width="13.96" height="13.96" rx="6.98" ry="6.98"/>
    <rect class="cls-1" x="109.65" y="170.29" width="13.96" height="13.96" rx="6.98" ry="6.98"/>
    <rect class="cls-1" x="179.6" y="196.21" width="13.96" height="13.96" rx="6.98" ry="6.98"/>
    <rect class="cls-1" x="77.28" y="158.08" width="13.96" height="13.96" rx="6.98" ry="6.98"/>
    <rect class="cls-1" x="209.98" y="209.6" width="13.96" height="13.96" rx="6.98" ry="6.98"/>
    <text class="cls-2" transform="translate(181.41 277.16)"><tspan class="cls-5" x="0" y="0">L</tspan><tspan class="cls-3" x="28.5" y="0">y</tspan><tspan x="58.98" y="0">on</tspan></text>
  </g>
</svg>